ply
format ascii 1.0
comment Created by Open Asset Import Library - http://assimp.sf.net (v5.0.1588609223)
element vertex 540
property float x
property float y
property float z
property float nx
property float ny
property float nz
element face 180
property list uchar int vertex_index
end_header
14.4544 64.201797 11.8792 -0.22499999 0.45629999 0.86089998
-0.60159999 54.790901 12.9319 -0.22499999 0.45629999 0.86089998
-0.46880001 43.4972 18.953501 -0.22499999 0.45629999 0.86089998
25.2036 25.057301 -12.4184 0.44819999 -0.54149997 -0.7112
15.2755 11.974 -8.7137003 0.44819999 -0.54149997 -0.7112
12.0554 18.083799 -15.395 0.44819999 -0.54149997 -0.7112
-15.6826 21.1978 15.8858 -0.1425 -0.40459999 0.90329999
-2.8775001 10.3591 13.0521 -0.1425 -0.40459999 0.90329999
-0.3179 21.449699 18.423 -0.1425 -0.40459999 0.90329999
26.208799 19.8878 6.1044002 0.70520002 -0.70789999 0.039900001
15.7792 9.0458002 -1.9089 0.70520002 -0.70789999 0.039900001
31.225401 24.455 -1.5427999 0.70520002 -0.70789999 0.039900001
-2.7909 1.632 -4.3643999 -0.4844 -0.74180001 -0.46380001
-18.0399 15.9023 -11.2626 -0.4844 -0.74180001 -0.46380001
-2.1612 3.7765 -8.4517002 -0.4844 -0.74180001 -0.46380001
19.282 48.688099 -18.493099 -0.055300001 0.2606 -0.96390003
-0.55080003 44.611698 -18.458 -0.055300001 0.2606 -0.96390003
15.6865 59.658401 -15.3211 -0.055300001 0.2606 -0.96390003
25.264799 53.617901 -16.4475 0.25 0.096299998 -0.96340001
24.844799 42.214199 -17.6968 0.25 0.096299998 -0.96340001
19.282 48.688099 -18.493099 0.25 0.096299998 -0.96340001
33.555599 52.307999 12.7262 0.75089997 0.0054000001 0.66039997
34.6092 38.586399 11.6413 0.75089997 0.0054000001 0.66039997
39.435001 48.7808 6.0704002 0.75089997 0.0054000001 0.66039997
-27.8887 66.673897 2.0439999 -0.57450002 0.7155 0.3976
-37.032299 57.572701 5.2091999 -0.57450002 0.7155 0.3976
-24.606001 64.314102 11.0346 -0.57450002 0.7155 0.3976
-25.622999 39.812302 17.5193 -0.1365 0.0041 0.99059999
-9.9036999 31.231701 19.7216 -0.1365 0.0041 0.99059999
-21.497299 52.617298 18.0345 -0.1365 0.0041 0.99059999
-7.0082998 15.8829 -15.6248 -0.33520001 -0.4152 -0.84570003
-18.0399 15.9023 -11.2626 -0.33520001 -0.4152 -0.84570003
-16.458401 27.603201 -17.6339 -0.33520001 -0.4152 -0.84570003
-5.8586001 37.325298 -19.834299 0.039000001 0.15790001 -0.9867
-21.216101 51.511501 -18.171301 0.039000001 0.15790001 -0.9867
-0.55080003 44.611698 -18.458 0.039000001 0.15790001 -0.9867
24.844799 42.214199 -17.6968 0.13689999 -0.0041999999 -0.99059999
14.8138 31.766701 -19.0392 0.13689999 -0.0041999999 -0.99059999
19.282 48.688099 -18.493099 0.13689999 -0.0041999999 -0.99059999
-0.2687 24.305 -19.257799 -0.036800001 -0.059999999 -0.9975
-12.899 32.600101 -19.290701 -0.036800001 -0.059999999 -0.9975
-5.8586001 37.325298 -19.834299 -0.036800001 -0.059999999 -0.9975
-5.8586001 37.325298 -19.834299 -0.089900002 0.019400001 -0.99580002
-12.899 32.600101 -19.290701 -0.089900002 0.019400001 -0.99580002
-21.216101 51.511501 -18.171301 -0.089900002 0.019400001 -0.99580002
-33.555801 62.259998 -3.6542001 -0.84429997 0.53359997 -0.048999999
-40.1297 51.886902 -3.3322001 -0.84429997 0.53359997 -0.048999999
-37.032299 57.572701 5.2091999 -0.84429997 0.53359997 -0.048999999
32.5783 44.377098 -14.2294 0.49520001 0.1884 -0.84810001
25.264799 53.617901 -16.4475 0.49520001 0.1884 -0.84810001
37.729099 51.310501 -9.6815004 0.49520001 0.1884 -0.84810001
12.9352 67.087303 6.9947 -0.4853 0.87019998 0.085699998
14.1648 68.599403 -1.4007 -0.4853 0.87019998 0.085699998
0.024 59.942501 6.4345999 -0.4853 0.87019998 0.085699998
19.282 48.688099 -18.493099 0.0076000001 0.1006 -0.99489999
8.1459999 36.783298 -19.781799 0.0076000001 0.1006 -0.99489999
-5.8586001 37.325298 -19.834299 0.0076000001 0.1006 -0.99489999
19.282 48.688099 -18.493099 -0.046500001 0.21799999 -0.97479999
-5.8586001 37.325298 -19.834299 -0.046500001 0.21799999 -0.97479999
-0.55080003 44.611698 -18.458 -0.046500001 0.21799999 -0.97479999
-2.1612 3.7765 -8.4517002 0.1858 -0.88160002 -0.4339
6.1648998 3.2514 -3.8188 0.1858 -0.88160002 -0.4339
-2.7909 1.632 -4.3643999 0.1858 -0.88160002 -0.4339
3.5499001 3.3118999 7.3228998 0.53619999 -0.81980002 0.20110001
15.7792 9.0458002 -1.9089 0.53619999 -0.81980002 0.20110001
15.0517 10.9313 7.7153997 0.53619999 -0.81980002 0.20110001
15.7792 9.0458002 -1.9089 0.69980001 -0.6979 -0.1523
27.079 21.3587 -6.4087 0.69980001 -0.6979 -0.1523
31.225401 24.455 -1.5427999 0.69980001 -0.6979 -0.1523
36.546501 37.573799 -8.6456003 0.93300003 -0.1063 -0.34400001
37.729099 51.310501 -9.6815004 0.93300003 -0.1063 -0.34400001
40.2005 42.250999 -0.1793 0.93300003 -0.1063 -0.34400001
-18.912001 15.5745 9.6690998 -0.56050003 -0.74860001 0.35420001
-17.655001 10.1362 0.16419999 -0.56050003 -0.74860001 0.35420001
-4.5472002 3.4552 6.7867002 -0.56050003 -0.74860001 0.35420001
-2.7909 1.632 -4.3643999 0.175 -0.9835 0.046399999
6.1648998 3.2514 -3.8188 0.175 -0.9835 0.046399999
3.5499001 3.3118999 7.3228998 0.175 -0.9835 0.046399999
5.2041001 5.9945998 -9.2051001 0.0999 -0.60089999 -0.7931
-2.1612 3.7765 -8.4517002 0.0999 -0.60089999 -0.7931
3.7398 12.4461 -14.2779 0.0999 -0.60089999 -0.7931
-7.0082998 15.8829 -15.6248 -0.1531 -0.28560001 -0.94599998
-16.458401 27.603201 -17.6339 -0.1531 -0.28560001 -0.94599998
-0.2687 24.305 -19.257799 -0.1531 -0.28560001 -0.94599998
27.079 21.3587 -6.4087 0.78789997 -0.50800002 -0.34810001
36.546501 37.573799 -8.6456003 0.78789997 -0.50800002 -0.34810001
31.225401 24.455 -1.5427999 0.78789997 -0.50800002 -0.34810001
25.2036 25.057301 -12.4184 0.42730001 -0.36559999 -0.82690001
18.9911 27.723499 -16.8069 0.42730001 -0.36559999 -0.82690001
28.316299 35.549099 -15.4484 0.42730001 -0.36559999 -0.82690001
3.7398 12.4461 -14.2779 -0.0623 -0.52710003 -0.84750003
-2.1612 3.7765 -8.4517002 -0.0623 -0.52710003 -0.84750003
-7.0082998 15.8829 -15.6248 -0.0623 -0.52710003 -0.84750003
-2.1612 3.7765 -8.4517002 -0.30230001 -0.57260001 -0.76209998
-18.0399 15.9023 -11.2626 -0.30230001 -0.57260001 -0.76209998
-7.0082998 15.8829 -15.6248 -0.30230001 -0.57260001 -0.76209998
28.316299 35.549099 -15.4484 0.30379999 -0.20039999 -0.9314
18.9911 27.723499 -16.8069 0.30379999 -0.20039999 -0.9314
14.8138 31.766701 -19.0392 0.30379999 -0.20039999 -0.9314
3.7398 12.4461 -14.2779 -0.0092000002 -0.38980001 -0.92079997
-7.0082998 15.8829 -15.6248 -0.0092000002 -0.38980001 -0.92079997
-0.2687 24.305 -19.257799 -0.0092000002 -0.38980001 -0.92079997
15.7792 9.0458002 -1.9089 0.62419999 -0.69980001 -0.34729999
15.2755 11.974 -8.7137003 0.62419999 -0.69980001 -0.34729999
27.079 21.3587 -6.4087 0.62419999 -0.69980001 -0.34729999
3.5499001 3.3118999 7.3228998 0.49470001 -0.86059999 0.1208
6.1648998 3.2514 -3.8188 0.49470001 -0.86059999 0.1208
15.7792 9.0458002 -1.9089 0.49470001 -0.86059999 0.1208
36.546501 37.573799 -8.6456003 0.64279997 -0.38240001 -0.6638
25.2036 25.057301 -12.4184 0.64279997 -0.38240001 -0.6638
28.316299 35.549099 -15.4484 0.64279997 -0.38240001 -0.6638
37.729099 51.310501 -9.6815004 0.7392 -0.1137 -0.6638
36.546501 37.573799 -8.6456003 0.7392 -0.1137 -0.6638
32.5783 44.377098 -14.2294 0.7392 -0.1137 -0.6638
12.0554 18.083799 -15.395 0.1538 -0.28310001 -0.94669998
-0.2687 24.305 -19.257799 0.1538 -0.28310001 -0.94669998
14.8138 31.766701 -19.0392 0.1538 -0.28310001 -0.94669998
-0.2687 24.305 -19.257799 0.0020999999 -0.043299999 -0.99910003
-5.8586001 37.325298 -19.834299 0.0020999999 -0.043299999 -0.99910003
8.1459999 36.783298 -19.781799 0.0020999999 -0.043299999 -0.99910003
32.5783 44.377098 -14.2294 0.65310001 -0.215 -0.72610003
36.546501 37.573799 -8.6456003 0.65310001 -0.215 -0.72610003
28.316299 35.549099 -15.4484 0.65310001 -0.215 -0.72610003
32.5783 44.377098 -14.2294 0.3874 0.086300001 -0.91790003
24.844799 42.214199 -17.6968 0.3874 0.086300001 -0.91790003
25.264799 53.617901 -16.4475 0.3874 0.086300001 -0.91790003
27.079 21.3587 -6.4087 0.58289999 -0.59810001 -0.55000001
15.2755 11.974 -8.7137003 0.58289999 -0.59810001 -0.55000001
25.2036 25.057301 -12.4184 0.58289999 -0.59810001 -0.55000001
27.079 21.3587 -6.4087 0.7058 -0.4835 -0.51779997
25.2036 25.057301 -12.4184 0.7058 -0.4835 -0.51779997
36.546501 37.573799 -8.6456003 0.7058 -0.4835 -0.51779997
-0.2687 24.305 -19.257799 0.1137 -0.35179999 -0.92919999
12.0554 18.083799 -15.395 0.1137 -0.35179999 -0.92919999
3.7398 12.4461 -14.2779 0.1137 -0.35179999 -0.92919999
12.0554 18.083799 -15.395 0.27149999 -0.55610001 -0.78560001
5.2041001 5.9945998 -9.2051001 0.27149999 -0.55610001 -0.78560001
3.7398 12.4461 -14.2779 0.27149999 -0.55610001 -0.78560001
15.7792 9.0458002 -1.9089 0.53250003 -0.76249999 -0.36750001
6.1648998 3.2514 -3.8188 0.53250003 -0.76249999 -0.36750001
15.2755 11.974 -8.7137003 0.53250003 -0.76249999 -0.36750001
6.1648998 3.2514 -3.8188 0.2093 -0.85570002 -0.47319999
-2.1612 3.7765 -8.4517002 0.2093 -0.85570002 -0.47319999
5.2041001 5.9945998 -9.2051001 0.2093 -0.85570002 -0.47319999
32.5783 44.377098 -14.2294 0.4267 -0.081600003 -0.90069997
28.316299 35.549099 -15.4484 0.4267 -0.081600003 -0.90069997
24.844799 42.214199 -17.6968 0.4267 -0.081600003 -0.90069997
24.844799 42.214199 -17.6968 0.296 -0.16329999 -0.9411
28.316299 35.549099 -15.4484 0.296 -0.16329999 -0.9411
14.8138 31.766701 -19.0392 0.296 -0.16329999 -0.9411
-12.899 32.600101 -19.290701 -0.18520001 -0.0233 -0.9824
-28.2295 37.459999 -16.516199 -0.18520001 -0.0233 -0.9824
-21.216101 51.511501 -18.171301 -0.18520001 -0.0233 -0.9824
-16.458401 27.603201 -17.6339 -0.40779999 -0.3935 -0.82389998
-18.0399 15.9023 -11.2626 -0.40779999 -0.3935 -0.82389998
-28.2295 37.459999 -16.516199 -0.40779999 -0.3935 -0.82389998
-0.2687 24.305 -19.257799 -0.1415 -0.2193 -0.96530002
-16.458401 27.603201 -17.6339 -0.1415 -0.2193 -0.96530002
-12.899 32.600101 -19.290701 -0.1415 -0.2193 -0.96530002
-16.458401 27.603201 -17.6339 -0.2244 -0.15889999 -0.96139997
-28.2295 37.459999 -16.516199 -0.2244 -0.15889999 -0.96139997
-12.899 32.600101 -19.290701 -0.2244 -0.15889999 -0.96139997
15.2755 11.974 -8.7137003 0.3813 -0.58329999 -0.71719998
5.2041001 5.9945998 -9.2051001 0.3813 -0.58329999 -0.71719998
12.0554 18.083799 -15.395 0.3813 -0.58329999 -0.71719998
5.2041001 5.9945998 -9.2051001 0.4684 -0.7507 -0.4659
15.2755 11.974 -8.7137003 0.4684 -0.7507 -0.4659
6.1648998 3.2514 -3.8188 0.4684 -0.7507 -0.4659
14.8138 31.766701 -19.0392 0.1124 0.0024000001 -0.99370003
8.1459999 36.783298 -19.781799 0.1124 0.0024000001 -0.99370003
19.282 48.688099 -18.493099 0.1124 0.0024000001 -0.99370003
14.8138 31.766701 -19.0392 0.052700002 -0.077299997 -0.99559999
-0.2687 24.305 -19.257799 0.052700002 -0.077299997 -0.99559999
8.1459999 36.783298 -19.781799 0.052700002 -0.077299997 -0.99559999
25.2036 25.057301 -12.4184 0.4025 -0.4095 -0.81870002
12.0554 18.083799 -15.395 0.4025 -0.4095 -0.81870002
18.9911 27.723499 -16.8069 0.4025 -0.4095 -0.81870002
12.0554 18.083799 -15.395 0.2157 -0.29170001 -0.93190002
14.8138 31.766701 -19.0392 0.2157 -0.29170001 -0.93190002
18.9911 27.723499 -16.8069 0.2157 -0.29170001 -0.93190002
14.1648 68.599403 -1.4007 -0.51679999 0.85600001 0.0131
-0.0029 60.1217 -6.3305001 -0.51679999 0.85600001 0.0131
0.024 59.942501 6.4345999 -0.51679999 0.85600001 0.0131
-12.1125 67.761398 -3.1454999 0.53560001 0.84439999 0.0107
0.024 59.942501 6.4345999 0.53560001 0.84439999 0.0107
-0.0029 60.1217 -6.3305001 0.53560001 0.84439999 0.0107
-28.5861 21.817301 3.8796999 -0.73110002 -0.68229997 -0.0057999999
-28.146099 21.416599 -4.4379001 -0.73110002 -0.68229997 -0.0057999999
-17.655001 10.1362 0.16419999 -0.73110002 -0.68229997 -0.0057999999
-39.522701 40.4314 -3.9033999 -0.85470003 -0.50849998 -0.1042
-28.146099 21.416599 -4.4379001 -0.85470003 -0.50849998 -0.1042
-36.9095 34.417801 4.0033998 -0.85470003 -0.50849998 -0.1042
27.671101 67.336304 -2.1176 0.71789998 0.69529998 0.0352
34.4911 59.828499 7.0858998 0.71789998 0.69529998 0.0352
38.431999 56.321701 -4.0109 0.71789998 0.69529998 0.0352
38.431999 56.321701 -4.0109 0.90130001 0.38510001 0.19840001
34.4911 59.828499 7.0858998 0.90130001 0.38510001 0.19840001
39.435001 48.7808 6.0704002 0.90130001 0.38510001 0.19840001
8.1814003 14.0983 14.3695 0.156 -0.33250001 0.93010002
17.0956 26.3335 17.2488 0.156 -0.33250001 0.93010002
-0.3179 21.449699 18.423 0.156 -0.33250001 0.93010002
11.0861 33.749401 19.750099 0.17749999 -0.013 0.98400003
27.683201 39.9575 16.8377 0.17749999 -0.013 0.98400003
23.3342 51.027599 17.768101 0.17749999 -0.013 0.98400003
-0.60159999 54.790901 12.9319 0.28929999 0.45300001 0.84329998
-13.6836 59.698799 14.7828 0.28929999 0.45300001 0.84329998
-0.46880001 43.4972 18.953501 0.28929999 0.45300001 0.84329998
0.024 59.942501 6.4345999 0.44850001 0.88099998 0.1508
-12.1125 67.761398 -3.1454999 0.44850001 0.88099998 0.1508
-12.4317 65.819901 9.1428003 0.44850001 0.88099998 0.1508
-39.522701 40.4314 -3.9033999 -0.963 -0.2264 0.1461
-36.9095 34.417801 4.0033998 -0.963 -0.2264 0.1461
-38.937599 45.3382 7.5542998 -0.963 -0.2264 0.1461
-33.4021 51.433498 13.2785 -0.37689999 0.084299996 0.9224
-25.622999 39.812302 17.5193 -0.37689999 0.084299996 0.9224
-21.497299 52.617298 18.0345 -0.37689999 0.084299996 0.9224
-0.55080003 44.611698 -18.458 0.099299997 0.33649999 -0.9364
-21.216101 51.511501 -18.171301 0.099299997 0.33649999 -0.9364
-14.4962 63.398102 -13.1877 0.099299997 0.33649999 -0.9364
-33.555801 62.259998 -3.6542001 -0.75819999 0.4664 -0.45559999
-32.568401 55.128502 -12.5986 -0.75819999 0.4664 -0.45559999
-40.1297 51.886902 -3.3322001 -0.75819999 0.4664 -0.45559999
23.3342 51.027599 17.768101 0.43090001 0.093900003 0.89749998
27.683201 39.9575 16.8377 0.43090001 0.093900003 0.89749998
33.555599 52.307999 12.7262 0.43090001 0.093900003 0.89749998
23.732201 67.184998 6.2874999 0.53109998 0.8053 0.26339999
34.4911 59.828499 7.0858998 0.53109998 0.8053 0.26339999
27.671101 67.336304 -2.1176 0.53109998 0.8053 0.26339999
13.8582 66.428902 -9.0630999 -0.30219999 0.60170001 -0.73930001
15.6865 59.658401 -15.3211 -0.30219999 0.60170001 -0.73930001
0.38299999 54.395401 -13.349 -0.30219999 0.60170001 -0.73930001
25.577 63.7635 -10.8218 0.61119998 0.66960001 -0.4219
27.671101 67.336304 -2.1176 0.61119998 0.66960001 -0.4219
38.431999 56.321701 -4.0109 0.61119998 0.66960001 -0.4219
-17.655001 10.1362 0.16419999 -0.64060003 -0.69989997 0.31569999
-18.912001 15.5745 9.6690998 -0.64060003 -0.69989997 0.31569999
-28.5861 21.817301 3.8796999 -0.64060003 -0.69989997 0.31569999
-36.9095 34.417801 4.0033998 -0.82499999 -0.30739999 0.47409999
-32.256699 35.218102 12.6186 -0.82499999 -0.30739999 0.47409999
-38.937599 45.3382 7.5542998 -0.82499999 -0.30739999 0.47409999
-22.7502 67.682701 -6.1503 -0.17659999 0.73500001 -0.65469998
-14.4962 63.398102 -13.1877 -0.17659999 0.73500001 -0.65469998
-27.4193 62.040501 -11.2254 -0.17659999 0.73500001 -0.65469998
-12.1125 67.761398 -3.1454999 0.029200001 0.99119997 -0.1293
-22.7502 67.682701 -6.1503 0.029200001 0.99119997 -0.1293
-18.771999 68.787399 3.2126999 0.029200001 0.99119997 -0.1293
8.1814003 14.0983 14.3695 0.44 -0.54500002 0.7137
15.0517 10.9313 7.7153997 0.44 -0.54500002 0.7137
24.4382 25.3895 12.9687 0.44 -0.54500002 0.7137
34.6092 38.586399 11.6413 0.74760002 -0.47369999 0.46560001
26.208799 19.8878 6.1044002 0.74760002 -0.47369999 0.46560001
37.611198 36.898602 5.1034002 0.74760002 -0.47369999 0.46560001
-21.497299 52.617298 18.0345 -0.37400001 0.40110001 0.8362
-24.606001 64.314102 11.0346 -0.37400001 0.40110001 0.8362
-33.4021 51.433498 13.2785 -0.37400001 0.40110001 0.8362
-0.60159999 54.790901 12.9319 0.329 0.60259998 0.72710001
-12.4317 65.819901 9.1428003 0.329 0.60259998 0.72710001
-13.6836 59.698799 14.7828 0.329 0.60259998 0.72710001
-32.8624 31.6798 -9.1406002 -0.80629998 -0.31330001 -0.5018
-39.522701 40.4314 -3.9033999 -0.80629998 -0.31330001 -0.5018
-35.996101 44.066601 -11.8401 -0.80629998 -0.31330001 -0.5018
-40.1297 51.886902 -3.3322001 -0.79220003 0.2061 -0.57440001
-32.568401 55.128502 -12.5986 -0.79220003 0.2061 -0.57440001
-35.996101 44.066601 -11.8401 -0.79220003 0.2061 -0.57440001
33.555599 52.307999 12.7262 0.37239999 0.37310001 0.84969997
24.1238 61.401901 12.8665 0.37239999 0.37310001 0.84969997
23.3342 51.027599 17.768101 0.37239999 0.37310001 0.84969997
14.4544 64.201797 11.8792 -0.24789999 0.4684 0.84799999
-0.46880001 43.4972 18.953501 -0.24789999 0.4684 0.84799999
16.645 56.145199 16.970301 -0.24789999 0.4684 0.84799999
-9.9036999 31.231701 19.7216 -0.0124 0.071999997 0.99730003
-0.46880001 43.4972 18.953501 -0.0124 0.071999997 0.99730003
-21.497299 52.617298 18.0345 -0.0124 0.071999997 0.99730003
-0.46880001 43.4972 18.953501 0.0173 0.1018 0.99470001
11.0861 33.749401 19.750099 0.0173 0.1018 0.99470001
23.3342 51.027599 17.768101 0.0173 0.1018 0.99470001
14.1648 68.599403 -1.4007 0.096199997 0.99339998 0.063000001
23.732201 67.184998 6.2874999 0.096199997 0.99339998 0.063000001
27.671101 67.336304 -2.1176 0.096199997 0.99339998 0.063000001
27.671101 67.336304 -2.1176 0.1445 0.90270001 -0.40529999
25.577 63.7635 -10.8218 0.1445 0.90270001 -0.40529999
13.8582 66.428902 -9.0630999 0.1445 0.90270001 -0.40529999
0.38299999 54.395401 -13.349 -0.42860001 0.68839997 -0.58520001
-0.0029 60.1217 -6.3305001 -0.42860001 0.68839997 -0.58520001
13.8582 66.428902 -9.0630999 -0.42860001 0.68839997 -0.58520001
-14.4962 63.398102 -13.1877 0.4251 0.71259999 -0.55809999
-0.0029 60.1217 -6.3305001 0.4251 0.71259999 -0.55809999
0.38299999 54.395401 -13.349 0.4251 0.71259999 -0.55809999
-15.6826 21.1978 15.8858 -0.25040001 -0.2165 0.9436
-9.9036999 31.231701 19.7216 -0.25040001 -0.2165 0.9436
-25.622999 39.812302 17.5193 -0.25040001 -0.2165 0.9436
-28.5861 21.817301 3.8796999 -0.66030002 -0.52869999 0.53329998
-18.912001 15.5745 9.6690998 -0.66030002 -0.52869999 0.53329998
-32.256699 35.218102 12.6186 -0.66030002 -0.52869999 0.53329998
31.225401 24.455 -1.5427999 0.8168 -0.53479999 0.2164
37.611198 36.898602 5.1034002 0.8168 -0.53479999 0.2164
26.208799 19.8878 6.1044002 0.8168 -0.53479999 0.2164
31.225401 24.455 -1.5427999 0.88819999 -0.43709999 -0.1419
36.546501 37.573799 -8.6456003 0.88819999 -0.43709999 -0.1419
40.2005 42.250999 -0.1793 0.88819999 -0.43709999 -0.1419
-0.0029 60.1217 -6.3305001 0.39199999 0.80610001 -0.44330001
-14.4962 63.398102 -13.1877 0.39199999 0.80610001 -0.44330001
-12.1125 67.761398 -3.1454999 0.39199999 0.80610001 -0.44330001
-14.4962 63.398102 -13.1877 0.1115 0.90149999 -0.41819999
-22.7502 67.682701 -6.1503 0.1115 0.90149999 -0.41819999
-12.1125 67.761398 -3.1454999 0.1115 0.90149999 -0.41819999
-17.655001 10.1362 0.16419999 -0.54360002 -0.75660002 -0.3635
-18.0399 15.9023 -11.2626 -0.54360002 -0.75660002 -0.3635
-2.7909 1.632 -4.3643999 -0.54360002 -0.75660002 -0.3635
-17.655001 10.1362 0.16419999 -0.4799 -0.87470001 0.067400001
-2.7909 1.632 -4.3643999 -0.4799 -0.87470001 0.067400001
-4.5472002 3.4552 6.7867002 -0.4799 -0.87470001 0.067400001
-21.216101 51.511501 -18.171301 -0.41280001 0.099399999 -0.90539998
-28.2295 37.459999 -16.516199 -0.41280001 0.099399999 -0.90539998
-32.568401 55.128502 -12.5986 -0.41280001 0.099399999 -0.90539998
-21.216101 51.511501 -18.171301 -0.1805 0.46529999 -0.86650002
-27.4193 62.040501 -11.2254 -0.1805 0.46529999 -0.86650002
-14.4962 63.398102 -13.1877 -0.1805 0.46529999 -0.86650002
-33.4021 51.433498 13.2785 -0.57550001 0.50510001 0.64319998
-24.606001 64.314102 11.0346 -0.57550001 0.50510001 0.64319998
-37.032299 57.572701 5.2091999 -0.57550001 0.50510001 0.64319998
-40.1297 51.886902 -3.3322001 -0.95670003 0.1911 0.21969999
-38.937599 45.3382 7.5542998 -0.95670003 0.1911 0.21969999
-37.032299 57.572701 5.2091999 -0.95670003 0.1911 0.21969999
-39.522701 40.4314 -3.9033999 -0.99559999 -0.056499999 0.075000003
-38.937599 45.3382 7.5542998 -0.99559999 -0.056499999 0.075000003
-40.1297 51.886902 -3.3322001 -0.99559999 -0.056499999 0.075000003
-40.1297 51.886902 -3.3322001 -0.90880001 -0.0274 -0.41639999
-35.996101 44.066601 -11.8401 -0.90880001 -0.0274 -0.41639999
-39.522701 40.4314 -3.9033999 -0.90880001 -0.0274 -0.41639999
-18.771999 68.787399 3.2126999 -0.25319999 0.90899998 0.331
-27.8887 66.673897 2.0439999 -0.25319999 0.90899998 0.331
-24.606001 64.314102 11.0346 -0.25319999 0.90899998 0.331
-12.4317 65.819901 9.1428003 0.031399999 0.67379999 0.73820001
-24.606001 64.314102 11.0346 0.031399999 0.67379999 0.73820001
-13.6836 59.698799 14.7828 0.031399999 0.67379999 0.73820001
-4.5472002 3.4552 6.7867002 -0.3344 -0.58770001 0.7367
-2.8775001 10.3591 13.0521 -0.3344 -0.58770001 0.7367
-15.6826 21.1978 15.8858 -0.3344 -0.58770001 0.7367
3.5499001 3.3118999 7.3228998 0.3838 -0.61489999 0.68889999
15.0517 10.9313 7.7153997 0.3838 -0.61489999 0.68889999
8.1814003 14.0983 14.3695 0.3838 -0.61489999 0.68889999
-17.655001 10.1362 0.16419999 -0.6164 -0.7112 -0.33809999
-28.146099 21.416599 -4.4379001 -0.6164 -0.7112 -0.33809999
-18.0399 15.9023 -11.2626 -0.6164 -0.7112 -0.33809999
-28.2295 37.459999 -16.516199 -0.56599998 -0.43779999 -0.69859999
-18.0399 15.9023 -11.2626 -0.56599998 -0.43779999 -0.69859999
-32.8624 31.6798 -9.1406002 -0.56599998 -0.43779999 -0.69859999
-33.4021 51.433498 13.2785 -0.6742 -0.077500001 0.73449999
-38.937599 45.3382 7.5542998 -0.6742 -0.077500001 0.73449999
-32.256699 35.218102 12.6186 -0.6742 -0.077500001 0.73449999
-37.032299 57.572701 5.2091999 -0.81029999 0.2295 0.53920001
-38.937599 45.3382 7.5542998 -0.81029999 0.2295 0.53920001
-33.4021 51.433498 13.2785 -0.81029999 0.2295 0.53920001
-21.497299 52.617298 18.0345 0.098999999 0.32300001 0.94120002
-0.46880001 43.4972 18.953501 0.098999999 0.32300001 0.94120002
-13.6836 59.698799 14.7828 0.098999999 0.32300001 0.94120002
-13.6836 59.698799 14.7828 -0.088 0.49419999 0.86489999
-24.606001 64.314102 11.0346 -0.088 0.49419999 0.86489999
-21.497299 52.617298 18.0345 -0.088 0.49419999 0.86489999
-4.5472002 3.4552 6.7867002 -0.35589999 -0.59359998 0.72180003
-15.6826 21.1978 15.8858 -0.35589999 -0.59359998 0.72180003
-18.912001 15.5745 9.6690998 -0.35589999 -0.59359998 0.72180003
-32.256699 35.218102 12.6186 -0.53530002 -0.4691 0.70240003
-18.912001 15.5745 9.6690998 -0.53530002 -0.4691 0.70240003
-15.6826 21.1978 15.8858 -0.53530002 -0.4691 0.70240003
16.645 56.145199 16.970301 0.073200002 0.54689997 0.83399999
24.1238 61.401901 12.8665 0.073200002 0.54689997 0.83399999
14.4544 64.201797 11.8792 0.073200002 0.54689997 0.83399999
14.1648 68.599403 -1.4007 0.0027000001 0.98409998 0.1776
12.9352 67.087303 6.9947 0.0027000001 0.98409998 0.1776
23.732201 67.184998 6.2874999 0.0027000001 0.98409998 0.1776
34.4911 59.828499 7.0858998 0.78820002 0.3035 0.53539997
33.555599 52.307999 12.7262 0.78820002 0.3035 0.53539997
39.435001 48.7808 6.0704002 0.78820002 0.3035 0.53539997
34.4911 59.828499 7.0858998 0.48050001 0.48710001 0.72920001
24.1238 61.401901 12.8665 0.48050001 0.48710001 0.72920001
33.555599 52.307999 12.7262 0.48050001 0.48710001 0.72920001
-33.555801 62.259998 -3.6542001 -0.48289999 0.77179998 -0.4138
-22.7502 67.682701 -6.1503 -0.48289999 0.77179998 -0.4138
-27.4193 62.040501 -11.2254 -0.48289999 0.77179998 -0.4138
-22.7502 67.682701 -6.1503 -0.2233 0.9745 -0.020099999
-27.8887 66.673897 2.0439999 -0.2233 0.9745 -0.020099999
-18.771999 68.787399 3.2126999 -0.2233 0.9745 -0.020099999
17.0956 26.3335 17.2488 0.22319999 -0.1443 0.96399999
27.683201 39.9575 16.8377 0.22319999 -0.1443 0.96399999
11.0861 33.749401 19.750099 0.22319999 -0.1443 0.96399999
24.4382 25.3895 12.9687 0.68489999 -0.47209999 0.55500001
26.208799 19.8878 6.1044002 0.68489999 -0.47209999 0.55500001
34.6092 38.586399 11.6413 0.68489999 -0.47209999 0.55500001
-32.256699 35.218102 12.6186 -0.42300001 -0.30090001 0.85470003
-15.6826 21.1978 15.8858 -0.42300001 -0.30090001 0.85470003
-25.622999 39.812302 17.5193 -0.42300001 -0.30090001 0.85470003
-33.4021 51.433498 13.2785 -0.55940002 -0.073100001 0.82569999
-32.256699 35.218102 12.6186 -0.55940002 -0.073100001 0.82569999
-25.622999 39.812302 17.5193 -0.55940002 -0.073100001 0.82569999
-28.2295 37.459999 -16.516199 -0.67199999 -0.31600001 -0.66970003
-32.8624 31.6798 -9.1406002 -0.67199999 -0.31600001 -0.66970003
-35.996101 44.066601 -11.8401 -0.67199999 -0.31600001 -0.66970003
-28.2295 37.459999 -16.516199 -0.46160001 0.082500003 -0.88319999
-35.996101 44.066601 -11.8401 -0.46160001 0.082500003 -0.88319999
-32.568401 55.128502 -12.5986 -0.46160001 0.082500003 -0.88319999
15.6865 59.658401 -15.3211 0.077600002 0.3003 -0.95069999
25.264799 53.617901 -16.4475 0.077600002 0.3003 -0.95069999
19.282 48.688099 -18.493099 0.077600002 0.3003 -0.95069999
15.6865 59.658401 -15.3211 0.046599999 0.68480003 -0.72729999
13.8582 66.428902 -9.0630999 0.046599999 0.68480003 -0.72729999
25.577 63.7635 -10.8218 0.046599999 0.68480003 -0.72729999
25.264799 53.617901 -16.4475 0.19580001 0.4709 -0.86019999
15.6865 59.658401 -15.3211 0.19580001 0.4709 -0.86019999
25.577 63.7635 -10.8218 0.19580001 0.4709 -0.86019999
25.577 63.7635 -10.8218 0.49259999 0.4104 -0.76740003
37.729099 51.310501 -9.6815004 0.49259999 0.4104 -0.76740003
25.264799 53.617901 -16.4475 0.49259999 0.4104 -0.76740003
-4.5472002 3.4552 6.7867002 -0.061099999 -0.66259998 0.74650002
3.5499001 3.3118999 7.3228998 -0.061099999 -0.66259998 0.74650002
-2.8775001 10.3591 13.0521 -0.061099999 -0.66259998 0.74650002
-4.5472002 3.4552 6.7867002 -0.027899999 -0.98720002 0.15700001
-2.7909 1.632 -4.3643999 -0.027899999 -0.98720002 0.15700001
3.5499001 3.3118999 7.3228998 -0.027899999 -0.98720002 0.15700001
0.024 59.942501 6.4345999 -0.42629999 0.72829998 0.53640002
-0.60159999 54.790901 12.9319 -0.42629999 0.72829998 0.53640002
12.9352 67.087303 6.9947 -0.42629999 0.72829998 0.53640002
0.024 59.942501 6.4345999 0.44710001 0.67949998 0.58179998
-12.4317 65.819901 9.1428003 0.44710001 0.67949998 0.58179998
-0.60159999 54.790901 12.9319 0.44710001 0.67949998 0.58179998
27.683201 39.9575 16.8377 0.59780002 -0.0175 0.80140001
34.6092 38.586399 11.6413 0.59780002 -0.0175 0.80140001
33.555599 52.307999 12.7262 0.59780002 -0.0175 0.80140001
24.4382 25.3895 12.9687 0.52530003 -0.3258 0.78609997
34.6092 38.586399 11.6413 0.52530003 -0.3258 0.78609997
27.683201 39.9575 16.8377 0.52530003 -0.3258 0.78609997
-0.55080003 44.611698 -18.458 0.25029999 0.42930001 -0.8678
-14.4962 63.398102 -13.1877 0.25029999 0.42930001 -0.8678
0.38299999 54.395401 -13.349 0.25029999 0.42930001 -0.8678
-0.55080003 44.611698 -18.458 -0.26890001 0.4659 -0.84299999
0.38299999 54.395401 -13.349 -0.26890001 0.4659 -0.84299999
15.6865 59.658401 -15.3211 -0.26890001 0.4659 -0.84299999
-0.3179 21.449699 18.423 0.1276 -0.2226 0.96649998
17.0956 26.3335 17.2488 0.1276 -0.2226 0.96649998
11.0861 33.749401 19.750099 0.1276 -0.2226 0.96649998
-9.9036999 31.231701 19.7216 -0.0097000003 0.07 0.9975
11.0861 33.749401 19.750099 -0.0097000003 0.07 0.9975
-0.46880001 43.4972 18.953501 -0.0097000003 0.07 0.9975
37.611198 36.898602 5.1034002 0.8779 -0.17110001 0.44729999
39.435001 48.7808 6.0704002 0.8779 -0.17110001 0.44729999
34.6092 38.586399 11.6413 0.8779 -0.17110001 0.44729999
40.2005 42.250999 -0.1793 0.99239999 0.1229 -0.0068000001
38.431999 56.321701 -4.0109 0.99239999 0.1229 -0.0068000001
39.435001 48.7808 6.0704002 0.99239999 0.1229 -0.0068000001
37.729099 51.310501 -9.6815004 0.9799 0.0726 -0.1856
38.431999 56.321701 -4.0109 0.9799 0.0726 -0.1856
40.2005 42.250999 -0.1793 0.9799 0.0726 -0.1856
25.577 63.7635 -10.8218 0.61680001 0.5503 -0.56279999
38.431999 56.321701 -4.0109 0.61680001 0.5503 -0.56279999
37.729099 51.310501 -9.6815004 0.61680001 0.5503 -0.56279999
3.5499001 3.3118999 7.3228998 0.096900001 -0.57319999 0.81370002
8.1814003 14.0983 14.3695 0.096900001 -0.57319999 0.81370002
-2.8775001 10.3591 13.0521 0.096900001 -0.57319999 0.81370002
-0.3179 21.449699 18.423 0.043299999 -0.44350001 0.89520001
-2.8775001 10.3591 13.0521 0.043299999 -0.44350001 0.89520001
8.1814003 14.0983 14.3695 0.043299999 -0.44350001 0.89520001
-12.4317 65.819901 9.1428003 0.2947 0.94270003 0.1566
-12.1125 67.761398 -3.1454999 0.2947 0.94270003 0.1566
-18.771999 68.787399 3.2126999 0.2947 0.94270003 0.1566
-18.771999 68.787399 3.2126999 -0.034600001 0.87849998 0.47659999
-24.606001 64.314102 11.0346 -0.034600001 0.87849998 0.47659999
-12.4317 65.819901 9.1428003 -0.034600001 0.87849998 0.47659999
-36.9095 34.417801 4.0033998 -0.74400002 -0.49590001 0.4479
-28.5861 21.817301 3.8796999 -0.74400002 -0.49590001 0.4479
-32.256699 35.218102 12.6186 -0.74400002 -0.49590001 0.4479
-28.146099 21.416599 -4.4379001 -0.83429998 -0.551 -0.0176
-28.5861 21.817301 3.8796999 -0.83429998 -0.551 -0.0176
-36.9095 34.417801 4.0033998 -0.83429998 -0.551 -0.0176
14.1648 68.599403 -1.4007 -0.4402 0.86839998 -0.22840001
13.8582 66.428902 -9.0630999 -0.4402 0.86839998 -0.22840001
-0.0029 60.1217 -6.3305001 -0.4402 0.86839998 -0.22840001
27.671101 67.336304 -2.1176 0.075099997 0.95859998 -0.27450001
13.8582 66.428902 -9.0630999 0.075099997 0.95859998 -0.27450001
14.1648 68.599403 -1.4007 0.075099997 0.95859998 -0.27450001
-0.3179 21.449699 18.423 0.0129 -0.1191 0.9928
11.0861 33.749401 19.750099 0.0129 -0.1191 0.9928
-9.9036999 31.231701 19.7216 0.0129 -0.1191 0.9928
-15.6826 21.1978 15.8858 -0.1522 -0.27520001 0.94929999
-0.3179 21.449699 18.423 -0.1522 -0.27520001 0.94929999
-9.9036999 31.231701 19.7216 -0.1522 -0.27520001 0.94929999
24.1238 61.401901 12.8665 0.42919999 0.69090003 0.58179998
34.4911 59.828499 7.0858998 0.42919999 0.69090003 0.58179998
23.732201 67.184998 6.2874999 0.42919999 0.69090003 0.58179998
23.732201 67.184998 6.2874999 0.15019999 0.74699998 0.64770001
14.4544 64.201797 11.8792 0.15019999 0.74699998 0.64770001
24.1238 61.401901 12.8665 0.15019999 0.74699998 0.64770001
-27.8887 66.673897 2.0439999 -0.47530001 0.8585 -0.19230001
-22.7502 67.682701 -6.1503 -0.47530001 0.8585 -0.19230001
-33.555801 62.259998 -3.6542001 -0.47530001 0.8585 -0.19230001
-27.8887 66.673897 2.0439999 -0.6803 0.72369999 0.1159
-33.555801 62.259998 -3.6542001 -0.6803 0.72369999 0.1159
-37.032299 57.572701 5.2091999 -0.6803 0.72369999 0.1159
-32.8624 31.6798 -9.1406002 -0.653 -0.54229999 -0.52869999
-18.0399 15.9023 -11.2626 -0.653 -0.54229999 -0.52869999
-28.146099 21.416599 -4.4379001 -0.653 -0.54229999 -0.52869999
-32.8624 31.6798 -9.1406002 -0.83630002 -0.49360001 -0.2386
-28.146099 21.416599 -4.4379001 -0.83630002 -0.49360001 -0.2386
-39.522701 40.4314 -3.9033999 -0.83630002 -0.49360001 -0.2386
23.3342 51.027599 17.768101 0.00030000001 0.15449999 0.98799998
16.645 56.145199 16.970301 0.00030000001 0.15449999 0.98799998
-0.46880001 43.4972 18.953501 0.00030000001 0.15449999 0.98799998
23.3342 51.027599 17.768101 0.20389999 0.40549999 0.89109999
24.1238 61.401901 12.8665 0.20389999 0.40549999 0.89109999
16.645 56.145199 16.970301 0.20389999 0.40549999 0.89109999
37.611198 36.898602 5.1034002 0.9418 -0.1682 0.2911
40.2005 42.250999 -0.1793 0.9418 -0.1682 0.2911
39.435001 48.7808 6.0704002 0.9418 -0.1682 0.2911
31.225401 24.455 -1.5427999 0.8933 -0.4492 -0.0173
40.2005 42.250999 -0.1793 0.8933 -0.4492 -0.0173
37.611198 36.898602 5.1034002 0.8933 -0.4492 -0.0173
-21.216101 51.511501 -18.171301 -0.2999 0.39590001 -0.86790001
-32.568401 55.128502 -12.5986 -0.2999 0.39590001 -0.86790001
-27.4193 62.040501 -11.2254 -0.2999 0.39590001 -0.86790001
-33.555801 62.259998 -3.6542001 -0.6286 0.57279998 -0.52609998
-27.4193 62.040501 -11.2254 -0.6286 0.57279998 -0.52609998
-32.568401 55.128502 -12.5986 -0.6286 0.57279998 -0.52609998
8.1814003 14.0983 14.3695 0.3971 -0.47420001 0.78579998
24.4382 25.3895 12.9687 0.3971 -0.47420001 0.78579998
17.0956 26.3335 17.2488 0.3971 -0.47420001 0.78579998
17.0956 26.3335 17.2488 0.44580001 -0.32120001 0.8355
24.4382 25.3895 12.9687 0.44580001 -0.32120001 0.8355
27.683201 39.9575 16.8377 0.44580001 -0.32120001 0.8355
15.0517 10.9313 7.7153997 0.55010003 -0.57660002 0.60409999
26.208799 19.8878 6.1044002 0.55010003 -0.57660002 0.60409999
24.4382 25.3895 12.9687 0.55010003 -0.57660002 0.60409999
15.0517 10.9313 7.7153997 0.63099998 -0.75099999 0.1948
15.7792 9.0458002 -1.9089 0.63099998 -0.75099999 0.1948
26.208799 19.8878 6.1044002 0.63099998 -0.75099999 0.1948
12.9352 67.087303 6.9947 -0.41260001 0.72229999 0.55500001
-0.60159999 54.790901 12.9319 -0.41260001 0.72229999 0.55500001
14.4544 64.201797 11.8792 -0.41260001 0.72229999 0.55500001
23.732201 67.184998 6.2874999 0.0251 0.86409998 0.50269997
12.9352 67.087303 6.9947 0.0251 0.86409998 0.50269997
14.4544 64.201797 11.8792 0.0251 0.86409998 0.50269997
3 0 1 2
3 3 4 5
3 6 7 8
3 9 10 11
3 12 13 14
3 15 16 17
3 18 19 20
3 21 22 23
3 24 25 26
3 27 28 29
3 30 31 32
3 33 34 35
3 36 37 38
3 39 40 41
3 42 43 44
3 45 46 47
3 48 49 50
3 51 52 53
3 54 55 56
3 57 58 59
3 60 61 62
3 63 64 65
3 66 67 68
3 69 70 71
3 72 73 74
3 75 76 77
3 78 79 80
3 81 82 83
3 84 85 86
3 87 88 89
3 90 91 92
3 93 94 95
3 96 97 98
3 99 100 101
3 102 103 104
3 105 106 107
3 108 109 110
3 111 112 113
3 114 115 116
3 117 118 119
3 120 121 122
3 123 124 125
3 126 127 128
3 129 130 131
3 132 133 134
3 135 136 137
3 138 139 140
3 141 142 143
3 144 145 146
3 147 148 149
3 150 151 152
3 153 154 155
3 156 157 158
3 159 160 161
3 162 163 164
3 165 166 167
3 168 169 170
3 171 172 173
3 174 175 176
3 177 178 179
3 180 181 182
3 183 184 185
3 186 187 188
3 189 190 191
3 192 193 194
3 195 196 197
3 198 199 200
3 201 202 203
3 204 205 206
3 207 208 209
3 210 211 212
3 213 214 215
3 216 217 218
3 219 220 221
3 222 223 224
3 225 226 227
3 228 229 230
3 231 232 233
3 234 235 236
3 237 238 239
3 240 241 242
3 243 244 245
3 246 247 248
3 249 250 251
3 252 253 254
3 255 256 257
3 258 259 260
3 261 262 263
3 264 265 266
3 267 268 269
3 270 271 272
3 273 274 275
3 276 277 278
3 279 280 281
3 282 283 284
3 285 286 287
3 288 289 290
3 291 292 293
3 294 295 296
3 297 298 299
3 300 301 302
3 303 304 305
3 306 307 308
3 309 310 311
3 312 313 314
3 315 316 317
3 318 319 320
3 321 322 323
3 324 325 326
3 327 328 329
3 330 331 332
3 333 334 335
3 336 337 338
3 339 340 341
3 342 343 344
3 345 346 347
3 348 349 350
3 351 352 353
3 354 355 356
3 357 358 359
3 360 361 362
3 363 364 365
3 366 367 368
3 369 370 371
3 372 373 374
3 375 376 377
3 378 379 380
3 381 382 383
3 384 385 386
3 387 388 389
3 390 391 392
3 393 394 395
3 396 397 398
3 399 400 401
3 402 403 404
3 405 406 407
3 408 409 410
3 411 412 413
3 414 415 416
3 417 418 419
3 420 421 422
3 423 424 425
3 426 427 428
3 429 430 431
3 432 433 434
3 435 436 437
3 438 439 440
3 441 442 443
3 444 445 446
3 447 448 449
3 450 451 452
3 453 454 455
3 456 457 458
3 459 460 461
3 462 463 464
3 465 466 467
3 468 469 470
3 471 472 473
3 474 475 476
3 477 478 479
3 480 481 482
3 483 484 485
3 486 487 488
3 489 490 491
3 492 493 494
3 495 496 497
3 498 499 500
3 501 502 503
3 504 505 506
3 507 508 509
3 510 511 512
3 513 514 515
3 516 517 518
3 519 520 521
3 522 523 524
3 525 526 527
3 528 529 530
3 531 532 533
3 534 535 536
3 537 538 539
